<?xml version="1.0" encoding="UTF-8"?>
<svg version="1.1" xmlns="http://www.w3.org/2000/svg" width="500" height="500" viewBox="0 0 500 500">
<path d="M0 0 C3.98799196 2.17578479 7.9403857 4.39900326 11.8671875 6.68359375 C20.36065701 11.58553038 28.90869029 16.37870404 37.4921875 21.12109375 C46.90888654 26.33094313 56.23911719 31.65530249 65.48632812 37.15917969 C70.03760153 39.85644951 74.60972783 42.51815154 79.1796875 45.18359375 C80.68595703 46.06277466 80.68595703 46.06277466 82.22265625 46.9597168 C87.6732792 50.1373853 93.13211454 53.30014803 98.6015625 56.4453125 C100.31194702 57.42914917 100.31194702 57.42914917 102.05688477 58.43286133 C104.22819015 59.68063501 106.40047715 60.92670292 108.57397461 62.1706543 C110.54287837 63.3018338 112.50195481 64.4503815 114.44831848 65.61991882 C117.70833721 67.54761704 117.70833721 67.54761704 121.16522217 69.02566528 C125.05272079 70.93320964 127.63737987 72.46381214 130.7421875 75.49609375 C132.09647879 80.20665937 131.8810651 84.5564776 131.44604683 89.37219238 C131.24194795 91.731518 131.13626834 94.07772221 131.05638123 96.44433594 C130.81696902 103.15299839 130.44085736 109.84709046 129.91674805 116.53955078 C127.83260114 135.05829921 127.83260114 135.05829921 134.3326416 151.5307312 C140.7380578 156.98747714 148.62025212 160.18760607 156.40048218 163.17059326 C160.46959627 164.78462328 164.09966761 166.7998966 167.8125 169.09375 C169.36904297 169.98416992 169.36904297 169.98416992 170.95703125 170.89257812 C171.91738281 171.44236328 172.87773437 171.99214844 173.8671875 172.55859375 C174.89714844 173.14318359 175.92710937 173.72777344 176.98828125 174.33007812 C182.64616641 177.57599318 188.01935411 181.02691871 193.32470703 184.8190918 C197.2871753 187.56784907 201.44469727 189.95831446 205.6171875 192.37109375 C214.0570789 197.30820507 222.45843656 202.30411689 230.82110596 207.3706665 C232.04776407 208.11344503 233.27508691 208.85512707 234.50311279 209.59564209 C236.23948681 210.6429571 237.97354039 211.69401513 239.70703125 212.74609375 C240.703396 213.349375 241.69976074 213.95265625 242.72631836 214.57421875 C244.21917358 215.52554688 244.21917358 215.52554688 245.7421875 216.49609375 C246.37686447 216.74671066 247.01154144 216.99732758 247.66545105 217.25553894 C250.08116382 218.41780777 251.22283481 219.26230567 252.7421875 221.49609375 C253.62687902 227.0705795 253.27261652 232.55385492 252.98828125 238.171875 C252.93032262 239.8237208 252.87552142 241.47568016 252.82374573 243.12773132 C252.67925197 247.46780367 252.49198542 251.80500736 252.29571533 256.14300537 C252.10288997 260.57291701 251.95062273 265.00420263 251.79492188 269.43554688 C251.48365559 278.12425176 251.12718199 286.81034492 250.7421875 295.49609375 C247.2607249 294.13749898 244.14858861 292.65180686 240.9609375 290.6953125 C240.04683105 290.13666504 239.13272461 289.57801758 238.19091797 289.00244141 C236.73129639 288.10211182 236.73129639 288.10211182 235.2421875 287.18359375 C234.22914551 286.56274902 233.21610352 285.9419043 232.17236328 285.30224609 C229.02593825 283.37174095 225.88338735 281.43508776 222.7421875 279.49609375 C221.29730957 278.60446533 221.29730957 278.60446533 219.82324219 277.69482422 C217.97548742 276.55371514 216.12822439 275.41180935 214.28149414 274.26904297 C212.51889563 273.1788258 210.7550779 272.09057709 208.98999023 271.00439453 C205.20472834 268.67002239 201.44412393 266.31834496 197.75390625 263.8359375 C197.16174316 263.44583496 196.56958008 263.05573242 195.95947266 262.65380859 C194.4408591 261.64871853 192.93645776 260.62224061 191.43359375 259.59375 C187.78662376 258.10637907 186.35263123 259.06709296 182.7421875 260.49609375 C180.90555403 261.44060996 179.09568635 262.43855713 177.3125 263.48046875 C176.2807666 264.07972168 175.2490332 264.67897461 174.18603516 265.29638672 C173.09081543 265.93979004 171.9955957 266.58319336 170.8671875 267.24609375 C169.73200684 267.90625488 168.59682617 268.56641602 167.42724609 269.24658203 C161.55061154 272.66468399 155.69211454 276.11340839 149.8359375 279.56640625 C148.20374268 280.52595215 148.20374268 280.52595215 146.53857422 281.50488281 C144.45918831 282.72850298 142.38258027 283.9568588 140.30908203 285.19042969 C139.37177246 285.7424707 138.43446289 286.29451172 137.46875 286.86328125 C136.64971191 287.34909668 135.83067383 287.83491211 134.98681641 288.33544922 C132.7421875 289.49609375 132.7421875 289.49609375 128.7421875 290.49609375 C128.7421875 314.91609375 128.7421875 339.33609375 128.7421875 364.49609375 C138.3121875 369.77609375 147.8821875 375.05609375 157.7421875 380.49609375 C180.21245737 393.11486599 180.21245737 393.11486599 190.7421875 399.49609375 C189.45254423 403.36502357 188.13124956 403.70784529 184.625 405.68359375 C183.01612915 406.59975464 183.01612915 406.59975464 181.37475586 407.53442383 C180.2056193 408.18840837 179.03642863 408.84229619 177.8671875 409.49609375 C176.67467099 410.17181703 175.48269829 410.84850087 174.29125977 411.52612305 C171.89741971 412.88648784 169.50126277 414.24261459 167.10302734 415.59521484 C162.61079598 418.13600472 158.14361646 420.7185297 153.6796875 423.30859375 C152.92945313 423.74010742 152.17921875 424.17162109 151.40625 424.61621094 C147.55956637 426.83325678 143.74942757 429.095278 139.97265625 431.4296875 C139.19865479 431.90237061 138.42465332 432.37505371 137.62719727 432.86206055 C136.16301817 433.75872591 134.70590564 434.66707645 133.25756836 435.58911133 C128.39300878 438.55231618 128.39300878 438.55231618 125.35693359 438.29003906 C122.36726118 437.38225058 120.04134009 436.11406842 117.3671875 434.49609375 C115.78647461 433.54851196 115.78647461 433.54851196 114.17382812 432.58178711 C113.02991715 431.88660661 111.88603778 431.19137411 110.7421875 430.49609375 C108.93956953 429.41131956 107.13540352 428.32915092 105.33117676 427.24705505 C104.07375273 426.49266014 102.81684333 425.73740685 101.5604248 424.9813385 C97.02517895 422.25451438 92.46901127 419.56558008 87.8984375 416.8984375 C87.25551758 416.52312897 86.61259766 416.14782043 85.95019531 415.76113892 C83.44310173 414.29846951 80.93547821 412.83672394 78.42626953 411.37768555 C71.70247481 407.46611381 65.06042749 403.4693708 58.51708984 399.26293945 C53.33307467 395.96215485 48.06325015 392.80117935 42.8046875 389.62109375 C41.59554518 388.8886355 40.38648106 388.15604814 39.17749023 387.42333984 C36.65768038 385.89632875 34.13753511 384.36987333 31.6171875 382.84375 C27.69870094 380.4704424 23.78263953 378.09315357 19.8671875 375.71484375 C19.22929794 375.32738983 18.59140839 374.93993591 17.93418884 374.54074097 C16.05766794 373.40089223 14.18117666 372.26099474 12.3046875 371.12109375 C9.99361432 369.71724224 7.68239469 368.31363282 5.37109375 366.91015625 C4.40244385 366.32186035 3.43379395 365.73356445 2.43579102 365.12744141 C-0.18647237 363.45815976 -0.18647237 363.45815976 -2.89068604 362.34571838 C-5.2578125 360.49609375 -5.2578125 360.49609375 -5.85908508 357.28804016 C-5.87357506 355.94897552 -5.86028972 354.60944143 -5.82543945 353.27075195 C-5.82616959 352.53879608 -5.82689972 351.80684021 -5.82765198 351.05270386 C-5.82416844 348.63334023 -5.78527541 346.21590217 -5.74609375 343.796875 C-5.73676824 342.11965487 -5.72965089 340.44242111 -5.72465515 338.7651825 C-5.70556441 334.35072219 -5.65644649 329.9370845 -5.60113525 325.52294922 C-5.54998707 321.0186679 -5.52715063 316.51425364 -5.50195312 312.00976562 C-5.44832915 303.17151357 -5.36299178 294.33387206 -5.2578125 285.49609375 C-6.08164932 285.04348175 -6.90548615 284.59086975 -7.75428772 284.12454224 C-10.86170996 282.41641163 -13.96838824 280.70694232 -17.07460022 278.99661255 C-18.40953789 278.2619179 -19.74475522 277.52773115 -21.08027649 276.7940979 C-38.49175032 267.22846705 -38.49175032 267.22846705 -46.78845215 262.06958008 C-49.91798582 260.24834348 -51.55013851 259.31787229 -55.1418457 260.22241211 C-58.13640092 261.44646559 -60.82731515 262.81184173 -63.6171875 264.4453125 C-64.63828613 265.03916748 -65.65938477 265.63302246 -66.71142578 266.24487305 C-67.7992334 266.88465088 -68.88704102 267.52442871 -70.0078125 268.18359375 C-71.73872742 269.19159135 -73.46964693 270.19958116 -75.20083618 271.20710754 C-77.00375316 272.25738234 -78.80525899 273.31004159 -80.60644531 274.36328125 C-85.39098997 277.15983848 -90.18423039 279.94130601 -94.98144531 282.71606445 C-97.19843042 283.998485 -99.41399802 285.28336017 -101.62792969 286.57104492 C-103.15015137 287.45240112 -103.15015137 287.45240112 -104.703125 288.3515625 C-105.58500488 288.86356201 -106.46688477 289.37556152 -107.37548828 289.90307617 C-110.94982985 291.87856141 -114.59351308 293.69436898 -118.2578125 295.49609375 C-118.2578125 270.49609375 -118.2578125 245.49609375 -118.2578125 220.49609375 C-118.5878125 219.83609375 -118.9178125 219.17609375 -119.2578125 218.49609375 C-115.50846525 216.3282962 -111.75824496 214.16201323 -108.0078125 211.99609375 C-107.43036285 211.66240784 -106.85291321 211.32872192 -106.25796509 210.98492432 C-99.53029359 207.09788681 -92.79516735 203.22509635 -86.03515625 199.39453125 C-74.76257756 193.00279215 -63.5546729 186.55114575 -52.578125 179.65771484 C-42.91385558 173.60637819 -33.08780813 167.82829791 -23.27050781 162.0300293 C-21.94725545 161.24790134 -20.62401297 160.46575664 -19.30078125 159.68359375 C-18.35756516 159.12711906 -18.35756516 159.12711906 -17.39529419 158.55940247 C-14.03731252 156.57256058 -10.71872637 154.53844363 -7.43359375 152.43359375 C-4.2578125 150.49609375 -4.2578125 150.49609375 -2.2578125 150.49609375 C-2.15673078 140.55989786 -2.10957494 130.62503818 -2.13084221 120.68830681 C-2.13903287 116.0738152 -2.12880491 111.4609102 -2.07617188 106.84667969 C-2.02603582 102.39149467 -2.02469025 97.93869608 -2.05685806 93.48337173 C-2.06060302 91.78571553 -2.04690636 90.08792654 -2.01531601 88.39056015 C-1.51604893 79.12018425 -1.51604893 79.12018425 -5.38371277 71.1897583 C-7.96063981 69.62156479 -10.42639661 68.52091529 -13.2578125 67.49609375 C-14.19826416 66.95082031 -15.13871582 66.40554687 -16.10766602 65.84375 C-17.23579712 65.20759766 -17.23579712 65.20759766 -18.38671875 64.55859375 C-19.70385864 63.8150061 -19.70385864 63.8150061 -21.04760742 63.05639648 C-21.9626001 62.54149658 -22.87759277 62.02659668 -23.8203125 61.49609375 C-24.79395752 60.94574463 -25.76760254 60.39539551 -26.77075195 59.82836914 C-32.22267046 56.75091772 -37.68880426 53.70130114 -43.171875 50.6796875 C-44.86848267 49.74092773 -44.86848267 49.74092773 -46.59936523 48.78320312 C-48.79100044 47.57168701 -50.98572526 46.36573937 -53.18383789 45.16601562 C-54.1814917 44.61365234 -55.17914551 44.06128906 -56.20703125 43.4921875 C-57.52707153 42.76793579 -57.52707153 42.76793579 -58.8737793 42.02905273 C-61.36164706 40.42932701 -63.2494803 38.65754709 -65.2578125 36.49609375 C-58.49168093 31.79311972 -51.47215539 27.71827165 -44.2578125 23.74609375 C-36.77451819 19.592001 -29.31274535 15.41534623 -21.9453125 11.05859375 C-21.27145508 10.66285156 -20.59759766 10.26710938 -19.90332031 9.859375 C-16.8139155 8.03864065 -13.75361874 6.18674046 -10.73046875 4.2578125 C-9.66699219 3.59394531 -8.60351562 2.93007813 -7.5078125 2.24609375 C-6.60546875 1.6634375 -5.703125 1.08078125 -4.7734375 0.48046875 C-2.2578125 -0.50390625 -2.2578125 -0.50390625 0 0 Z " fill="#3A8594" transform="translate(171.2578125,39.50390625)"/>
<path d="M0 0 C2.77291474 1.15719545 5.35095944 2.53675755 7.97802734 3.99707031 C8.55402679 4.31570038 9.13002625 4.63433044 9.72348022 4.96261597 C11.60650702 6.00594395 13.48567971 7.05600378 15.36474609 8.10644531 C16.66967741 8.83183643 17.97477341 9.55693136 19.2800293 10.28173828 C23.2083475 12.46574187 27.13100499 14.6597664 31.05224609 16.85644531 C32.19145508 17.49420898 33.33066406 18.13197266 34.50439453 18.7890625 C37.58491801 20.51620623 40.66319577 22.2472353 43.73974609 23.98144531 C44.63927002 24.48836914 45.53879395 24.99529297 46.46557617 25.51757812 C52.38528762 28.87039412 58.23407383 32.33051617 64.05224609 35.85644531 C62.76260282 39.72537514 61.44130816 40.06819685 57.93505859 42.04394531 C56.86247803 42.65471924 55.78989746 43.26549316 54.68481445 43.89477539 C53.51567789 44.54875993 52.34648722 45.20264775 51.17724609 45.85644531 C49.98472959 46.53216859 48.79275688 47.20885244 47.60131836 47.88647461 C45.2074783 49.24683941 42.81132136 50.60296615 40.41308594 51.95556641 C35.92085457 54.49635628 31.45367506 57.07888127 26.98974609 59.66894531 C25.86439453 60.31621582 25.86439453 60.31621582 24.71630859 60.9765625 C20.86962496 63.19360835 17.05948616 65.45562957 13.28271484 67.79003906 C12.12171265 68.49906372 12.12171265 68.49906372 10.93725586 69.22241211 C9.47307677 70.11907747 8.01596423 71.02742801 6.56762695 71.94946289 C1.70306737 74.91266774 1.70306737 74.91266774 -1.33300781 74.65039062 C-4.32268023 73.74260214 -6.64860132 72.47441999 -9.32275391 70.85644531 C-10.37696533 70.22448242 -11.43117676 69.59251953 -12.51733398 68.94140625 C-13.66083981 68.24647277 -14.80431226 67.55148438 -15.94775391 66.85644531 C-17.74510771 65.77482986 -19.54400937 64.69581973 -21.3429718 63.61688232 C-22.59810701 62.86386071 -23.85272742 62.10998042 -25.1068573 61.35528564 C-29.70819202 58.58872753 -34.33088505 55.8606598 -38.96728516 53.15332031 C-39.62203827 52.77091187 -40.27679138 52.38850342 -40.9513855 51.99450684 C-43.51375605 50.49888449 -46.07674082 49.00432571 -48.64086914 47.51171875 C-50.41728255 46.47719 -52.19237172 45.4404198 -53.96728516 44.40332031 C-54.97895752 43.81389648 -55.99062988 43.22447266 -57.03295898 42.6171875 C-60.07194179 40.78142705 -63.00842951 38.84678081 -65.94775391 36.85644531 C-63.10536141 33.77230615 -60.38666801 31.80256191 -56.67822266 29.86035156 C-55.63545166 29.30798828 -54.59268066 28.755625 -53.51831055 28.18652344 C-52.40190186 27.60322266 -51.28549316 27.01992188 -50.13525391 26.41894531 C-47.7825872 25.17226398 -45.4308476 23.92400715 -43.08056641 22.67285156 C-42.48508499 22.35651764 -41.88960358 22.04018372 -41.27607727 21.71426392 C-34.37046447 18.0355243 -27.57083764 14.17248196 -20.7746582 10.29614258 C-19.04430171 9.30986342 -17.31185695 8.3272372 -15.57714844 7.34863281 C-13.70466733 6.28599543 -11.84202023 5.20594939 -9.98632812 4.11425781 C-9.01324707 3.55480469 -8.04016602 2.99535156 -7.03759766 2.41894531 C-6.15837646 1.90460938 -5.27915527 1.39027344 -4.37329102 0.86035156 C-1.94775391 -0.14355469 -1.94775391 -0.14355469 0 0 Z " fill="#2F6A82" transform="translate(297.94775390625,403.1435546875)"/>
<path d="M0 0 C1.19375244 0.65669678 1.19375244 0.65669678 2.41162109 1.32666016 C3.09369629 1.68655029 3.77577148 2.04644043 4.47851562 2.41723633 C5.16026855 2.81402588 5.84202148 3.21081543 6.54443359 3.61962891 C7.33720703 4.07756836 8.12998047 4.53550781 8.94677734 5.00732422 C9.80142578 5.50458008 10.65607422 6.00183594 11.53662109 6.51416016 C17.77754214 10.11760208 24.03326422 13.68949577 30.34130859 17.17431641 C31.22207565 17.66118172 31.22207565 17.66118172 32.12063599 18.15788269 C34.98889052 19.74214712 37.85934878 21.32218293 40.73242188 22.89770508 C46.45429903 26.05426105 52.12627897 29.28352333 57.72412109 32.65478516 C58.81337891 33.30866211 59.90263672 33.96253906 61.02490234 34.63623047 C62.20632812 35.47299316 62.20632812 35.47299316 63.41162109 36.32666016 C63.41162109 36.98666016 63.41162109 37.64666016 63.41162109 38.32666016 C62.42548828 38.86291016 61.43935547 39.39916016 60.42333984 39.95166016 C49.64667208 45.85553454 39.05400951 52.04816874 28.49707031 58.33447266 C18.8479895 64.07942126 9.1471284 69.72963281 -0.58837891 75.32666016 C-0.91837891 74.66666016 -1.24837891 74.00666016 -1.58837891 73.32666016 C-3.24023392 72.62409539 -4.91007662 71.96346754 -6.58837891 71.32666016 C-8.31715622 70.43655013 -10.03159452 69.51819718 -11.73291016 68.57666016 C-12.69664551 68.04427734 -13.66038086 67.51189453 -14.65332031 66.96337891 C-15.62188965 66.42326172 -16.59045898 65.88314453 -17.58837891 65.32666016 C-18.4654248 64.83810547 -19.3424707 64.34955078 -20.24609375 63.84619141 C-25.97010052 60.64340944 -31.67240249 57.40246946 -37.37158203 54.15576172 C-39.57368767 52.90362333 -41.77824008 51.65578098 -43.98486328 50.41162109 C-47.33823612 48.51926528 -50.68280193 46.6121329 -54.02587891 44.70166016 C-55.08057373 44.10998047 -56.13526855 43.51830078 -57.22192383 42.90869141 C-58.18718994 42.35310547 -59.15245605 41.79751953 -60.14697266 41.22509766 C-61.00605225 40.73702637 -61.86513184 40.24895508 -62.75024414 39.74609375 C-63.35682861 39.27768066 -63.96341309 38.80926758 -64.58837891 38.32666016 C-64.58837891 37.33666016 -64.58837891 36.34666016 -64.58837891 35.32666016 C-62.79785156 33.93896484 -62.79785156 33.93896484 -60.25244141 32.49853516 C-59.30272461 31.95334229 -58.35300781 31.40814941 -57.37451172 30.84643555 C-56.33133789 30.26240967 -55.28816406 29.67838379 -54.21337891 29.07666016 C-53.14442383 28.4662085 -52.07546875 27.85575684 -50.97412109 27.22680664 C-48.69259233 25.92418823 -46.40925907 24.62547602 -44.12255859 23.33203125 C-39.46090498 20.69199506 -34.82516479 18.00756384 -30.1875 15.32568359 C-26.00062925 12.90475789 -21.81169353 10.48765222 -17.60986328 8.09277344 C-15.49323895 6.85556752 -13.40235788 5.57374669 -11.33251953 4.25976562 C-10.27742188 3.59992676 -9.22232422 2.94008789 -8.13525391 2.26025391 C-7.19004883 1.65109131 -6.24484375 1.04192871 -5.27099609 0.41430664 C-2.58837891 -0.67333984 -2.58837891 -0.67333984 0 0 Z " fill="#2F6981" transform="translate(171.58837890625,39.67333984375)"/>
<path d="M0 0 C0.33 0 0.66 0 1 0 C1 14.19 1 28.38 1 43 C2.32 43.66 3.64 44.32 5 45 C4.51982422 45.25990723 4.03964844 45.51981445 3.54492188 45.78759766 C-7.73290532 51.90658809 -18.88205159 58.21581311 -29.95141602 64.70410156 C-36.92839234 68.79352761 -43.92084647 72.85398991 -50.9375 76.875 C-51.83782959 77.39312256 -52.73815918 77.91124512 -53.66577148 78.44506836 C-54.48634033 78.91436768 -55.30690918 79.38366699 -56.15234375 79.8671875 C-56.87413818 80.28081543 -57.59593262 80.69444336 -58.33959961 81.12060547 C-60 82 -60 82 -61 82 C-61 57.91 -61 33.82 -61 9 C-59 8 -59 8 -57.0625 8.25 C-55 9 -55 9 -53.7097168 10.34326172 C-51.5374943 12.44817417 -49.20834873 13.75662415 -46.58203125 15.2578125 C-44.95865845 16.19004639 -44.95865845 16.19004639 -43.30249023 17.14111328 C-42.13924877 17.80256471 -40.97591696 18.46385728 -39.8125 19.125 C-38.62748318 19.80286901 -37.4426695 20.48109327 -36.25805664 21.15966797 C-24.55192351 27.85724132 -12.78949484 34.45028064 -1 41 C-0.67 27.47 -0.34 13.94 0 0 Z " fill="#2D667E" transform="translate(114,253)"/>
<path d="M0 0 C0.66 0.33 1.32 0.66 2 1 C1.34 25.42 0.68 49.84 0 75 C-3.65063515 73.53974594 -6.4960566 72.21558194 -9.78125 70.19921875 C-10.69535645 69.64057129 -11.60946289 69.08192383 -12.55126953 68.50634766 C-13.52435059 67.90612793 -14.49743164 67.3059082 -15.5 66.6875 C-16.51304199 66.06665527 -17.52608398 65.44581055 -18.56982422 64.80615234 C-21.71624925 62.8756472 -24.85880015 60.93899401 -28 59 C-28.96325195 58.40558105 -29.92650391 57.81116211 -30.91894531 57.19873047 C-35.37217768 54.44856905 -39.8222439 51.69335759 -44.26953125 48.93359375 C-50.16947303 45.27242142 -56.08304656 41.63360221 -62 38 C-60.37682996 33.05595657 -58.45540005 31.59731564 -54.09765625 29.05859375 C-51.48528324 27.74024536 -48.77819589 26.9045289 -46 26 C-45.53722656 25.52691406 -45.07445312 25.05382812 -44.59765625 24.56640625 C-42.75502559 22.75981727 -41.13202781 22.03280154 -38.75 21.0625 C-35.87504938 19.84099433 -33.13256773 18.57986729 -30.4375 17 C-27.87427097 15.50866675 -25.32543387 14.09743385 -22.6875 12.75 C-22.03136719 12.41484375 -21.37523437 12.0796875 -20.69921875 11.734375 C-19 11 -19 11 -17 11 C-16.67 10.34 -16.34 9.68 -16 9 C-14.02966574 7.94274747 -12.02156704 6.95564988 -10 6 C-7.91002146 4.92592939 -5.82135282 3.84942093 -3.734375 2.76953125 C-2 2 -2 2 0 2 C0 1.34 0 0.68 0 0 Z " fill="#2E677F" transform="translate(422,260)"/>
</svg>
